<svg xmlns="http://www.w3.org/2000/svg" viewBox="0 0 374.40039 257.66846"><path d="M28.10645,156.73584l13.05664-15.74463c6.65625,5.76025,15.48828,9.72852,23.041,9.72852,8.44824,0,12.416-3.2002,12.416-8.32032,0-5.50439-5.24805-7.29638-13.44043-10.75244l-12.16016-5.12011c-9.98437-3.96827-19.3291-12.28858-19.3291-26.11329,0-16.001,14.33691-28.80127,34.56152-28.80127A44.31965,44.31965,0,0,1,97.22949,84.15674L85.83691,98.49316c-6.27246-4.73584-12.16015-7.29638-19.585-7.29638-7.04,0-11.26465,2.8164-11.26465,7.80859,0,5.37647,5.88868,7.42432,14.33692,10.75244l11.9043,4.73633c11.77636,4.73633,18.81738,12.67236,18.81738,26.11328,0,15.87256-13.3125,29.8252-36.35352,29.8252A53.29636,53.29636,0,0,1,28.10645,156.73584Z" transform="translate(-26.82617 -66.36377)"/><path d="M112.84277,141.63135V113.59814h-9.85644v-16.897l11.26465-.896,2.56054-19.32862h18.81641V95.80518h17.15332v17.793H135.62793v27.77735c0,8.06445,3.83984,11.26416,9.2168,11.26416a21.17626,21.17626,0,0,0,6.65625-1.40772l3.584,16.5127a53.57926,53.57926,0,0,1-16.51269,2.688C120.26758,170.43262,112.84277,158.78418,112.84277,141.63135Z" transform="translate(-26.82617 -66.36377)"/><path d="M166.08984,140.86328V95.80518H188.875v42.24218c0,9.98438,2.6875,12.92823,8.44824,12.92823,5.12012,0,8.32031-2.04786,12.16016-7.42432V95.80518h22.78515v72.83544H213.708l-1.66406-9.98437h-.5127c-6.01563,7.16846-12.7998,11.77637-22.65625,11.77637C172.874,170.43262,166.08984,159.04,166.08984,140.86328Z" transform="translate(-26.82617 -66.36377)"/><path d="M246.85645,132.15869c0-23.80908,14.97656-38.14551,30.082-38.14551,8.06445,0,12.80078,2.94385,17.53613,7.55225L293.707,90.68506V66.36377h22.78516V168.64062H297.93164l-1.66406-7.04052h-.5127c-5.12011,5.1206-12.16015,8.83252-19.07226,8.83252C258.50488,170.43262,246.85645,155.96826,246.85645,132.15869ZM293.707,145.59961V116.92627a16.40929,16.40929,0,0,0-11.39258-4.35205c-6.27246,0-12.03222,5.88818-12.03222,19.32861,0,13.95264,4.60742,19.84082,12.416,19.84082C287.05078,151.74365,290.50684,150.33594,293.707,145.59961Z" transform="translate(-26.82617 -66.36377)"/><path d="M333.12793,195.26562l4.0957-17.28076a25.35064,25.35064,0,0,0,4.86426.896c6.91211,0,10.49609-3.584,12.16113-8.7041l1.02344-3.7124L327.36719,95.80518h22.91308l9.72852,30.20947c2.17578,6.65625,3.71191,13.44043,5.63183,20.60889h.64063c1.4082-6.91211,3.07227-13.69678,4.73633-20.60889l8.44824-30.20947h21.76074L376.1377,168.76855c-7.04,18.689-14.97657,27.90528-32.25782,27.90528A35.27967,35.27967,0,0,1,333.12793,195.26562Z" transform="translate(-26.82617 -66.36377)"/><path d="M52.55566,245.94873H26.82617V226.876h74.499v19.07275H75.46875v76.2915H52.55566Z" transform="translate(-26.82617 -66.36377)"/><path d="M112.9707,227.51562c0-7.04,4.99219-11.64843,12.67188-11.64843,7.55273,0,12.67285,4.6084,12.67285,11.64843,0,7.16846-5.12012,11.77686-12.67285,11.77686C117.96289,239.29248,112.9707,234.68408,112.9707,227.51562Zm1.2793,21.88917h22.78516v72.83544H114.25Z" transform="translate(-26.82617 -66.36377)"/><path d="M155.33789,249.40479h18.56152l1.66407,9.2163h.38379c6.0166-6.01562,12.28808-11.0083,22.14453-11.0083,10.1123,0,16.25683,4.22412,19.96875,12.03272,6.27246-6.40039,13.05664-12.03272,22.78515-12.03272,15.87305,0,22.78516,11.39209,22.78516,29.56885v45.05859H240.8457V279.99805c0-10.11231-2.55957-12.92871-8.32031-12.92871-3.32812,0-7.2959,2.04882-11.64844,6.52832v48.64257H198.0918V279.99805c0-10.11231-2.6875-12.92871-8.44825-12.92871-3.32812,0-7.29589,2.04882-11.5205,6.52832v48.64257H155.33789Z" transform="translate(-26.82617 -66.36377)"/><path d="M277.32031,285.75879c0-23.55371,17.02539-38.146,34.56153-38.146,20.99316,0,31.23339,15.23291,31.23339,35.07373a42.71413,42.71413,0,0,1-1.02343,9.85645H299.33789c2.04785,9.98437,8.96,14.08008,18.17676,14.08008,5.248,0,10.1123-1.53516,15.36035-4.60743l7.55273,13.69629a47.00491,47.00491,0,0,1-25.98535,8.32032C293.44922,324.03223,277.32031,309.95117,277.32031,285.75879Zm46.46582-8.19238c0-7.16895-3.19922-12.54493-11.52051-12.54493-6.27148,0-11.77636,3.96875-13.3125,12.54493Z" transform="translate(-26.82617 -66.36377)"/></svg>